<?xml version="1.0" encoding="utf-8"?>
<!-- Generator: Adobe Illustrator 25.0.0, SVG Export Plug-In . SVG Version: 6.00 Build 0)  -->
<svg version="1.1" id="Layer_1" xmlns="http://www.w3.org/2000/svg" xmlns:xlink="http://www.w3.org/1999/xlink" x="0px" y="0px"
	 viewBox="0 0 595.3 411.6" style="enable-background:new 0 0 595.3 411.6;" xml:space="preserve">
<style type="text/css">
	.st0{clip-path:url(#SVGID_2_);fill:#313131;}
	.st1{clip-path:url(#SVGID_4_);fill:#313131;}
	
		.st2{clip-path:url(#SVGID_6_);fill:none;stroke:#FBC621;stroke-width:9;stroke-linecap:round;stroke-linejoin:round;stroke-miterlimit:10;}
	.st3{clip-path:url(#SVGID_8_);fill:#313131;}
	.st4{clip-path:url(#SVGID_10_);fill:#FBC621;}
	.st5{clip-path:url(#SVGID_12_);fill:#FBC621;}
	.st6{clip-path:url(#SVGID_14_);fill:#FBC621;}
	.st7{fill:#313131;}
	.st8{font-family:'BiondiSansW00-Regular';}
	.st9{font-size:88.0004px;}
	.st10{letter-spacing:1.1;}
	.st11{fill:#44494B;}
	.st12{fill:none;}
	.st13{fill:none;stroke:#313131;stroke-width:13;stroke-linecap:round;stroke-miterlimit:10;}
</style>
<g>
	<g>
		<g>
			<defs>
				<rect id="SVGID_1_" y="0" width="595.3" height="411.6"/>
			</defs>
			<clipPath id="SVGID_2_">
				<use xlink:href="#SVGID_1_"  style="overflow:visible;"/>
			</clipPath>
			<path class="st0" d="M342.2,78.1c-0.1-5.4-4.5-9.8-9.9-9.9l-49.1-2.5h-0.1l-2.1-0.1v12.9l46.8,2.5c0.8,0,1.5,0.7,1.5,1.5
				l2.6,54.2c0,0.8-0.6,1.6-1.4,1.6l-74.8,6.2c-0.9,0.1-1.8-0.7-1.7-1.6l2.2-53.8h-13l-2.4,57v0.2c0,3.3,1.3,6.6,3.5,8.8
				c1.8,1.8,4.1,2.9,6.6,2.9h0.3l84.3-7c5.4-0.2,9.7-4.6,9.7-10.1L342.2,78.1z"/>
		</g>
	</g>
	<g>
		<g>
			<defs>
				<rect id="SVGID_3_" y="0" width="595.3" height="411.6"/>
			</defs>
			<clipPath id="SVGID_4_">
				<use xlink:href="#SVGID_3_"  style="overflow:visible;"/>
			</clipPath>
			<path class="st1" d="M256.1,89.8c0,3.6-2.9,6.4-6.4,6.4s-6.4-2.9-6.4-6.4c0-3.6,2.9-6.4,6.4-6.4S256.1,86.3,256.1,89.8"/>
		</g>
	</g>
	<g>
		<g>
			<defs>
				<rect id="SVGID_5_" y="0" width="595.3" height="411.6"/>
			</defs>
			<clipPath id="SVGID_6_">
				<use xlink:href="#SVGID_5_"  style="overflow:visible;"/>
			</clipPath>
			<polyline class="st2" points="311.1,55.3 346.7,55.1 314.5,32.1 			"/>
		</g>
	</g>
	<g>
		<g>
			<defs>
				<rect id="SVGID_7_" y="0" width="595.3" height="411.6"/>
			</defs>
			<clipPath id="SVGID_8_">
				<use xlink:href="#SVGID_7_"  style="overflow:visible;"/>
			</clipPath>
			<path class="st3" d="M299.2,79.7c-0.1,0-0.3,0-0.4,0l-48.4-3c-2.9-0.2-5.2-2.2-5.9-5s0.6-5.7,3-7.1l41.3-24.3
				c3.1-1.8,7.1-0.8,8.9,2.3s0.8,7.1-2.3,8.9l-23,13.5l27.2,1.7c3.6,0.2,6.3,3.3,6.1,6.9C305.4,77,302.6,79.7,299.2,79.7"/>
		</g>
	</g>
	<g>
		<g>
			<defs>
				<rect id="SVGID_9_" y="0" width="595.3" height="411.6"/>
			</defs>
			<clipPath id="SVGID_10_">
				<use xlink:href="#SVGID_9_"  style="overflow:visible;"/>
			</clipPath>
			<path class="st4" d="M288.9,108.7h-15.2c-0.8,0-1.4-0.6-1.4-1.4V92c0-0.8,0.6-1.4,1.4-1.4h15.2c0.8,0,1.4,0.6,1.4,1.4v15.3
				C290.2,108,289.6,108.7,288.9,108.7"/>
		</g>
	</g>
	<g>
		<g>
			<defs>
				<rect id="SVGID_11_" y="0" width="595.3" height="411.6"/>
			</defs>
			<clipPath id="SVGID_12_">
				<use xlink:href="#SVGID_11_"  style="overflow:visible;"/>
			</clipPath>
			<path class="st5" d="M288.9,131.4h-15.2c-0.8,0-1.4-0.6-1.4-1.4v-15.3c0-0.8,0.6-1.4,1.4-1.4h15.2c0.8,0,1.4,0.6,1.4,1.4V130
				C290.2,130.8,289.6,131.4,288.9,131.4"/>
		</g>
	</g>
	<g>
		<g>
			<defs>
				<rect id="SVGID_13_" y="0" width="595.3" height="411.6"/>
			</defs>
			<clipPath id="SVGID_14_">
				<use xlink:href="#SVGID_13_"  style="overflow:visible;"/>
			</clipPath>
			<path class="st6" d="M312.1,108.7h-15.2c-0.8,0-1.4-0.6-1.4-1.4V92c0-0.8,0.6-1.4,1.4-1.4h15.2c0.8,0,1.4,0.6,1.4,1.4v15.3
				C313.5,108,312.9,108.7,312.1,108.7"/>
		</g>
	</g>
</g>
<text transform="matrix(0.89 0 0 1 48.3037 287.4894)" class="st7 st8 st9 st10">QO</text>
<text transform="matrix(0.89 0 0 1 201.8135 287.4894)" class="st7 st8 st9 st10">N</text>
<text transform="matrix(0.89 0 0 1 270.8145 287.4894)" class="st7 st8 st9 st10">ECTI</text>
<text transform="matrix(0.89 0 0 1 482.5039 287.4894)" class="st7 st8 st9">N</text>
<g>
	<path class="st11" d="M85,346.1v-30.4h7.6c3.8,0,6.5,0.6,8.2,1.9s2.6,3.3,2.6,6.1c0,2-0.5,3.6-1.4,4.9s-2.3,2.2-4.2,2.9l6.3,14.6
		h-3.3l-5.9-13.8H88v13.8H85L85,346.1z M92.6,318.5H88v11h4.5c2.8,0,4.8-0.4,6-1.3s1.8-2.2,1.8-4.2s-0.6-3.5-1.7-4.3
		C97.6,319,95.5,318.5,92.6,318.5z"/>
	<path class="st11" d="M121.9,339.9l2,1.4c-0.8,1.8-1.8,3-3.1,3.9c-1.3,0.8-2.9,1.3-4.8,1.3c-2.5,0-4.5-1-5.8-2.9s-2-4.8-2-8.5
		c0-3.5,0.7-6.3,2-8.3c1.4-2,3.2-3,5.6-3s4.3,1,5.6,2.9s2,4.7,2,8.1v0.9H111v0.7c0,2.3,0.5,4.1,1.4,5.4c1,1.3,2.2,2,3.9,2
		c1.2,0,2.3-0.3,3.3-1C120.6,342.2,121.4,341.2,121.9,339.9z M111.1,333.1h9.5c0-2.1-0.5-3.7-1.3-5s-2-1.8-3.4-1.8
		c-1.5,0-2.6,0.6-3.4,1.8C111.6,329.3,111.2,331,111.1,333.1z"/>
	<path class="st11" d="M139.7,343.1c-0.9,1.1-1.9,1.9-2.9,2.5s-2.1,0.8-3.3,0.8c-1.6,0-2.9-0.6-3.9-1.7s-1.5-2.6-1.5-4.4
		c0-2.3,0.9-4.1,2.7-5.5s4.8-2.5,9-3.5v-1.6c0-1-0.4-1.8-1.1-2.5c-0.7-0.6-1.7-1-2.8-1s-2,0.3-2.8,0.9s-1.5,1.4-2,2.6l-2.4-1.4
		c0.7-1.5,1.7-2.7,2.9-3.5s2.7-1.2,4.4-1.2c2.1,0,3.7,0.6,4.8,1.7s1.7,2.8,1.7,4.8v12.3c0,0.6,0,1.1,0.1,1.7
		c0.1,0.5,0.2,1.1,0.3,1.6v0.3h-3L139.7,343.1z M139.8,340.3v-6c-3.3,0.7-5.6,1.6-6.9,2.5s-2.1,2.1-2.1,3.6c0,1,0.3,1.8,0.9,2.4
		s1.4,0.9,2.3,0.9c0.8,0,1.7-0.3,2.7-0.8C137.6,342.3,138.6,341.5,139.8,340.3z"/>
	<path class="st11" d="M150.4,346.1v-30.4h2.7v30.4H150.4z"/>
	<path class="st11" d="M174.7,346.1v-30.4h15.9v2.9h-13v10.1h9.2v2.8h-9.2v11.6h13.6v2.9h-16.5V346.1z"/>
	<path class="st11" d="M194.8,342.3l2.2-2c0.8,1.2,1.6,2.1,2.5,2.7s1.9,0.9,3,0.9c1.2,0,2.1-0.3,2.9-1s1.1-1.6,1.1-2.7
		c0-1.7-1.5-3-4.5-3.9c-0.7-0.2-1.2-0.4-1.6-0.5c-1.6-0.6-2.9-1.3-3.7-2.3s-1.2-2.2-1.2-3.7c0-1.8,0.6-3.2,1.6-4.3
		c1.1-1.1,2.5-1.7,4.2-1.7c1.4,0,2.8,0.3,3.9,0.9s2.2,1.5,3.1,2.8l-1.8,2c-0.7-1-1.5-1.8-2.4-2.4c-0.9-0.5-1.8-0.8-2.7-0.8
		c-1,0-1.8,0.3-2.4,0.9s-0.9,1.4-0.9,2.3c0,0.5,0.1,0.9,0.3,1.3s0.4,0.7,0.7,1c0.6,0.5,1.7,1,3.3,1.5c0.8,0.2,1.4,0.4,1.8,0.6
		c1.6,0.6,2.9,1.4,3.6,2.4s1.1,2.2,1.1,3.7c0,2-0.6,3.6-1.9,4.8c-1.3,1.2-3,1.8-5.1,1.8c-1.5,0-2.9-0.4-4.2-1.1
		S195.6,343.6,194.8,342.3z"/>
	<path class="st11" d="M222.9,343.4v2.6c-0.4,0.1-0.8,0.3-1.3,0.3c-0.5,0.1-1,0.1-1.6,0.1c-1.5,0-2.6-0.4-3.3-1.1s-1.1-1.8-1.1-3.2
		v-15.5h-2.9V324h2.9v-7h2.9v7.1h4.4v2.6h-4.4v14.1c0,1.3,0.2,2.1,0.5,2.4s1,0.5,2,0.5C221.4,343.8,222,343.7,222.9,343.4
		L222.9,343.4z"/>
	<path class="st11" d="M238.3,343.1c-0.9,1.1-1.9,1.9-2.9,2.5s-2.1,0.8-3.3,0.8c-1.6,0-2.9-0.6-3.9-1.7s-1.5-2.6-1.5-4.4
		c0-2.3,0.9-4.1,2.7-5.5s4.8-2.5,9-3.5v-1.6c0-1-0.4-1.8-1.1-2.5c-0.7-0.6-1.7-1-2.8-1s-2,0.3-2.8,0.9s-1.5,1.4-2,2.6l-2.4-1.4
		c0.7-1.5,1.7-2.7,2.9-3.5s2.7-1.2,4.4-1.2c2.1,0,3.7,0.6,4.8,1.7s1.7,2.8,1.7,4.8v12.3c0,0.6,0,1.1,0.1,1.7
		c0.1,0.5,0.2,1.1,0.3,1.6v0.3h-3L238.3,343.1z M238.4,340.3v-6c-3.3,0.7-5.6,1.6-6.9,2.5s-2.1,2.1-2.1,3.6c0,1,0.3,1.8,0.9,2.4
		s1.4,0.9,2.3,0.9c0.8,0,1.7-0.3,2.7-0.8C236.2,342.3,237.3,341.5,238.4,340.3z"/>
	<path class="st11" d="M256.6,343.4v2.6c-0.4,0.1-0.8,0.3-1.3,0.3c-0.5,0.1-1,0.1-1.6,0.1c-1.5,0-2.6-0.4-3.3-1.1s-1.1-1.8-1.1-3.2
		v-15.5h-2.9V324h2.9v-7h2.9v7.1h4.5v2.6h-4.4v14.1c0,1.3,0.2,2.1,0.5,2.4s1,0.5,2,0.5C255.1,343.8,255.8,343.7,256.6,343.4
		L256.6,343.4z"/>
	<path class="st11" d="M274,339.9l2,1.4c-0.8,1.8-1.8,3-3.1,3.9c-1.3,0.8-2.9,1.3-4.8,1.3c-2.5,0-4.5-1-5.8-2.9s-2-4.8-2-8.5
		c0-3.5,0.7-6.3,2-8.3c1.4-2,3.2-3,5.6-3s4.3,1,5.6,2.9s2,4.7,2,8.1v0.9H263v0.7c0,2.3,0.5,4.1,1.5,5.4s2.2,2,3.9,2
		c1.2,0,2.3-0.3,3.3-1C272.6,342.2,273.4,341.2,274,339.9z M263.1,333.1h9.5c0-2.1-0.5-3.7-1.3-5s-2-1.8-3.4-1.8
		c-1.5,0-2.6,0.6-3.5,1.8C263.7,329.3,263.2,331,263.1,333.1z"/>
	<path class="st11" d="M295.2,346.1v-30.4h16v2.9h-13v10.1h9.2v2.8h-9.2v11.6h13.6v2.9h-16.6V346.1z"/>
	<path class="st11" d="M321.4,346.1l-6.4-22h2.8l5.4,18.8l5.4-18.8h2.8l-6.4,22H321.4z"/>
	<path class="st11" d="M334.7,335.1c0-3.6,0.7-6.4,2.1-8.4s3.4-3,6-3s4.6,1,6,3s2.1,4.8,2.1,8.4s-0.7,6.4-2.1,8.4s-3.4,3-6,3
		s-4.6-1-6-3S334.7,338.7,334.7,335.1z M337.4,335.1c0,2.9,0.5,5.1,1.4,6.6s2.3,2.3,4,2.3s3-0.8,4-2.3c0.9-1.5,1.4-3.7,1.4-6.5
		c0-2.9-0.5-5-1.4-6.5s-2.2-2.2-4-2.2s-3.1,0.8-4,2.2S337.4,332.2,337.4,335.1z"/>
	<path class="st11" d="M357.2,346.1v-30.4h2.7v30.4H357.2z"/>
	<path class="st11" d="M381.8,324.1v22h-2.5v-3.3c-1.1,1.3-2.1,2.2-3.2,2.8c-1.1,0.6-2.2,0.9-3.3,0.9c-1.6,0-2.9-0.5-3.8-1.6
		s-1.3-2.6-1.3-4.5v-16.2h2.7v15.1c0,1.6,0.2,2.8,0.7,3.5s1.3,1.1,2.4,1.1c1,0,1.9-0.3,2.8-0.8s1.8-1.4,2.7-2.5v-16.4h2.8V324.1z"/>
	<path class="st11" d="M397.4,343.4v2.6c-0.4,0.1-0.8,0.3-1.3,0.3c-0.5,0.1-1,0.1-1.6,0.1c-1.5,0-2.6-0.4-3.3-1.1
		c-0.8-0.7-1.1-1.8-1.1-3.2v-15.5h-2.9V324h2.9v-7h2.9v7.1h4.5v2.6H393v14.1c0,1.3,0.2,2.1,0.5,2.4s1,0.5,2,0.5
		C396,343.8,396.6,343.7,397.4,343.4L397.4,343.4z"/>
	<path class="st11" d="M402.8,319.4v-3.7h3.2v3.7H402.8z M403,346.1v-22h2.8v22H403z"/>
	<path class="st11" d="M412,335.1c0-3.6,0.7-6.4,2.1-8.4s3.4-3,6-3s4.6,1,6,3s2.1,4.8,2.1,8.4s-0.7,6.4-2.1,8.4s-3.4,3-6,3
		s-4.6-1-6-3S412,338.7,412,335.1z M414.7,335.1c0,2.9,0.5,5.1,1.4,6.6s2.3,2.3,4,2.3s3-0.8,4-2.3c0.9-1.5,1.4-3.7,1.4-6.5
		c0-2.9-0.5-5-1.4-6.5s-2.2-2.2-4-2.2s-3.1,0.8-4,2.2S414.7,332.2,414.7,335.1z"/>
	<path class="st11" d="M434.3,346.1v-22h2.5v3.3c1.1-1.3,2.1-2.2,3.2-2.8s2.1-0.9,3.3-0.9c1.6,0,2.9,0.5,3.8,1.6s1.3,2.6,1.3,4.5
		v16.3h-2.6V331c0-1.6-0.2-2.8-0.7-3.5s-1.3-1.1-2.4-1.1c-1,0-1.9,0.3-2.9,0.8s-1.8,1.4-2.7,2.5v16.4L434.3,346.1L434.3,346.1z"/>
	<path class="st11" d="M482.2,315.8v20.5h4.5v2.6h-4.5v7.7h-2.6v-7.7h-12.2v-2.1l11-21H482.2z M479.6,336.3v-17.8l-9.2,17.8H479.6z"
		/>
	<path class="st11" d="M493.9,346.1v-4.6h3.6v4.6H493.9z"/>
	<path class="st11" d="M504.9,330.9c0-5.1,0.8-9,2.4-11.7s3.9-4,7-4c3,0,5.4,1.3,7,4s2.4,6.6,2.4,11.7s-0.8,9-2.4,11.7
		c-1.6,2.7-3.9,4-7,4c-3,0-5.4-1.3-7-4C505.7,339.9,504.9,336,504.9,330.9z M507.8,330.9c0,4.3,0.5,7.5,1.6,9.7s2.7,3.3,4.9,3.3
		s3.8-1.1,4.9-3.2c1.1-2.2,1.6-5.4,1.6-9.7c0-4.3-0.5-7.5-1.6-9.7s-2.7-3.2-4.9-3.2c-2.1,0-3.8,1.1-4.9,3.3S507.8,326.7,507.8,330.9
		z"/>
</g>
<rect y="0" class="st12" width="595.3" height="411.6"/>
<line class="st13" x1="312.2" y1="123.3" x2="325.1" y2="173.5"/>
</svg>
