<svg xmlns="http://www.w3.org/2000/svg" xmlns:xlink="http://www.w3.org/1999/xlink" width="69" height="69" viewBox="0 0 69 69">
  <defs>
    <filter id="Path_456" x="0" y="0" width="69" height="60.836" filterUnits="userSpaceOnUse">
      <feOffset dy="3" input="SourceAlpha"/>
      <feGaussianBlur stdDeviation="3" result="blur"/>
      <feFlood flood-opacity="0.161"/>
      <feComposite operator="in" in2="blur"/>
      <feComposite in="SourceGraphic"/>
    </filter>
    <filter id="Path_457" x="5.87" y="23.846" width="57.259" height="45.154" filterUnits="userSpaceOnUse">
      <feOffset dy="3" input="SourceAlpha"/>
      <feGaussianBlur stdDeviation="3" result="blur-2"/>
      <feFlood flood-opacity="0.161"/>
      <feComposite operator="in" in2="blur-2"/>
      <feComposite in="SourceGraphic"/>
    </filter>
  </defs>
  <g id="VMS_account_menu" data-name="VMS account menu" transform="translate(9.5 6.5)">
    <g id="Group_55" data-name="Group 55" transform="translate(-1542.917 -31.87)">
      <g transform="matrix(1, 0, 0, 1, 1533.42, 25.37)" filter="url(#Path_456)">
        <path id="Path_456-2" data-name="Path 456" d="M1567.912,55.716h.011a19.2,19.2,0,0,1,19.1,17.265,25,25,0,1,0-38.222,0A19.206,19.206,0,0,1,1567.912,55.716Z" transform="translate(-1533.42 -25.37)" fill="none" stroke="#000" stroke-width="1"/>
      </g>
      <g transform="matrix(1, 0, 0, 1, 1533.42, 25.37)" filter="url(#Path_457)">
        <path id="Path_457-2" data-name="Path 457" d="M1567.917,81.87a24.941,24.941,0,0,0,19.111-8.889,19.2,19.2,0,0,0-19.1-17.265h-.011a19.206,19.206,0,0,0-19.106,17.265A24.943,24.943,0,0,0,1567.917,81.87Z" transform="translate(-1533.42 -25.37)" fill="#0a6f5c" stroke="#000" stroke-width="1"/>
      </g>
    </g>
    <path id="Path_4529" data-name="Path 4529" d="M9.747,0h.005A9.747,9.747,0,0,1,19.5,9.747v.036a9.747,9.747,0,0,1-9.747,9.747H9.747A9.747,9.747,0,0,1,0,9.783V9.747A9.747,9.747,0,0,1,9.747,0Z" transform="translate(34.75 27.728) rotate(180)" fill="#0a6f5c" stroke="#000" stroke-width="1"/>
  </g>
</svg>
