<?xml version="1.0" encoding="utf-8"?>
<!-- Generator: Adobe Illustrator 25.0.0, SVG Export Plug-In . SVG Version: 6.00 Build 0)  -->
<svg version="1.1" id="Layer_1" xmlns="http://www.w3.org/2000/svg" xmlns:xlink="http://www.w3.org/1999/xlink" x="0px" y="0px"
	 viewBox="0 0 752.4 476.4" style="enable-background:new 0 0 752.4 476.4;" xml:space="preserve">
<style type="text/css">
	.st0{fill:#FFF9E6;}
	.st1{fill-rule:evenodd;clip-rule:evenodd;fill:#FFFEFD;}
	.st2{fill:#F6F2ED;}
	.st3{fill-rule:evenodd;clip-rule:evenodd;fill:#F3EDE6;}
	.st4{fill-rule:evenodd;clip-rule:evenodd;fill:#DEDAD7;}
	.st5{fill-rule:evenodd;clip-rule:evenodd;fill:#F6F2ED;}
	.st6{fill-rule:evenodd;clip-rule:evenodd;fill:#FFFFFF;}
	.st7{fill:#FFFFFF;}
	.st8{fill:#F3F0EE;}
	.st9{fill-rule:evenodd;clip-rule:evenodd;fill:#FFD133;}
	.st10{fill-rule:evenodd;clip-rule:evenodd;fill:#295747;}
	.st11{fill-rule:evenodd;clip-rule:evenodd;fill:#ABA5AA;}
	.st12{fill-rule:evenodd;clip-rule:evenodd;fill:#050606;}
	.st13{fill-rule:evenodd;clip-rule:evenodd;fill:#F5C8AC;}
	.st14{fill-rule:evenodd;clip-rule:evenodd;fill:#D18F68;}
	.st15{fill-rule:evenodd;clip-rule:evenodd;fill:#82CAF8;}
	.st16{fill-rule:evenodd;clip-rule:evenodd;fill:#3578FF;}
	.st17{fill-rule:evenodd;clip-rule:evenodd;fill:#7A443D;}
	.st18{fill-rule:evenodd;clip-rule:evenodd;fill:#8A6056;}
	.st19{fill-rule:evenodd;clip-rule:evenodd;fill:#5A302B;}
	.st20{fill:none;stroke:#E62F60;stroke-width:5;stroke-linecap:round;}
	.st21{fill-rule:evenodd;clip-rule:evenodd;fill:#E62F60;}
</style>
<g>
	<ellipse id="Ellipse_24" class="st0" cx="657" cy="112.9" rx="79.1" ry="77.8"/>
	<g id="Group_666" transform="translate(1619.92 -2353.588)">
		<path id="Path_4230" class="st1" d="M-1139.5,2444.6l123.7-0.4c2,0,3.7-1.2,4.4-3.1c1-2.9-1-7.1-18.4-8.7c0,0-8.3-36.2-41.1-31.1
			c-5.7,0.9-11,3.5-9.1,21.5c0,0-17.1-8.8-34.7-1.8c-17.6,6.9-13.6,14.8-13.6,14.8s-19.1-0.4-15.6,6.2
			C-1143.1,2443.7-1141.4,2444.7-1139.5,2444.6"/>
		<g id="Group_668" transform="translate(-91.689 -20)">
			<rect id="Rectangle_128" x="-1354.6" y="2599.6" class="st2" width="190" height="100.8"/>
			<path id="Path_4231" class="st3" d="M-1019.7,2699.4h-145.6v-100l73.7-68.4l71.9,68.4V2699.4z"/>
			<path id="Path_4232" class="st4" d="M-1091.5,2531.7h-188.9l-79,67.6h194.1L-1091.5,2531.7z"/>
			<path id="Path_4233" class="st4" d="M-1173.5,2531.5"/>
			<path id="Path_4234" class="st5" d="M-1417.6,2702.5c-1,0-1.9-1.3-1.9-2.8c0-1.5,0.8-2.8,1.9-2.8h477.9c1,0,1.9,1.3,1.9,2.8
				c0,1.5-0.8,2.8-1.9,2.8H-1417.6z"/>
			<path id="Path_4235" class="st6" d="M-1111.8,2588.1h38.5v-17.4l-19.8-18.7l-18.7,18.3L-1111.8,2588.1z"/>
			<rect id="Rectangle_133" x="-1341.2" y="2620.4" class="st7" width="30.8" height="30.8"/>
			<rect id="Rectangle_154" x="-1279.4" y="2620.4" class="st7" width="30.8" height="30.8"/>
			<rect id="Rectangle_153" x="-1216.9" y="2620.4" class="st7" width="30.8" height="30.8"/>
			<rect id="Rectangle_137" x="-1150.6" y="2620.4" class="st7" width="30.8" height="30.8"/>
			<rect id="Rectangle_138" x="-1107.6" y="2620.4" class="st7" width="30.8" height="76.5"/>
			<rect id="Rectangle_139" x="-1063.8" y="2620.4" class="st7" width="30.8" height="30.8"/>
		</g>
		<path id="Path_4236" class="st1" d="M-1569.7,2414.4h108.6c3.9,0,7.7-1.3,10.3-3.6c3.3-3,4.8-7.9-5-15c-3.5-2.5-7.7-3.8-12-3.9
			c-5.4-0.1-11.4,1.6-11.2,10.1c0,0-18.9-27-48.4-26.5c-5.6,0.1-10.3,3.4-10.8,7.6c-0.5,4.1,1.3,10.4,8.9,19.7
			c0,0-12.9-4.1-24.3-2.9c-2.7,0.2-5.2,1.4-7,3.4c-0.8,1-1.3,2.2-0.4,3.1c0,0-6.6,0.1-10.7,1.7
			C-1575.6,2409.9-1574.2,2414.5-1569.7,2414.4"/>
	</g>
	<ellipse id="Ellipse_38" class="st8" cx="340.3" cy="414.5" rx="329.7" ry="45.9"/>
	<g>
		<g id="Group_778" transform="translate(2422.151 -3670.021)">
			<path id="Path_4309" class="st9" d="M-1876.4,3969.9c0,0-8.8,35.8-10,123.4l20.9-0.6l4-0.1l1.6-105.1l3.4-0.1
				c0,0,6.1,103.9,6.1,105.8l26.9,0.2c0,0-5.4-106.6-14.7-123.4L-1876.4,3969.9z"/>
			<path id="Path_4310" class="st10" d="M-1840.7,3972.2l-2,0v0c0.1,0.3,0.1,0.7,0.2,1.1c0.2,1.2,0.4,2.7,0.7,4.3
				c0.7,4.7,1.6,10.1,2.5,16.2c2.5,17.3,5.1,36.1,7.4,56c1.7,14.4,3.3,28.8,4.7,43.1c0,0.1-0.1,0.3-0.2,0.3c-0.1,0-0.3-0.1-0.3-0.2
				c-1.4-14.3-2.9-28.7-4.7-43.1c-2.4-19.8-4.9-38.7-7.4-55.9c-0.9-6-1.7-11.5-2.5-16.2c-0.3-1.6-0.5-3.1-0.7-4.3
				c-0.1-0.4-0.1-0.8-0.2-1.1l0-0.1c-1.8,0-3.6,0.1-5.5,0.1c-3,0-5.8,0.1-8.5,0.1c-11.2,0.1-18.4,0.1-19.6-0.1
				c-0.1,0-0.2-0.2-0.2-0.3c0-0.1,0.1-0.2,0.3-0.2c1.2,0.2,8.4,0.2,19.6,0.1c2.7,0,5.6-0.1,8.5-0.1c1.9,0,3.7-0.1,5.5-0.1
				c0.1-0.1,0.2-0.1,0.3-0.1c0,0,0,0,0,0l2.1,0l2.4,0l0.6,0l0.2,0c0.1,0,0.2,0.1,0.2,0.2s-0.1,0.2-0.2,0.2l0,0l-0.2,0l-0.6,0
				L-1840.7,3972.2 M-1859.7,3987.4c0,0.1-0.1,0.2-0.2,0.2c0,0,0,0,0,0l-3.1-0.1c-0.1,0-0.2-0.1-0.2-0.3c0-0.1,0.1-0.2,0.3-0.2l0,0
				l3.1,0.1C-1859.8,3987.2-1859.7,3987.3-1859.7,3987.4C-1859.7,3987.4-1859.7,3987.4-1859.7,3987.4"/>
			<path id="Path_4311" class="st11" d="M-1865.2,4092.6l-0.5,10.4h-8l0.2-1.3l-2.4,1.3h-14.9c0,0-0.6-2,1.7-3.3
				c2.6-1.4,3-2,3.5-3.3c0.4-1,0.6-2.2,0.4-3.3L-1865.2,4092.6z"/>
			<path id="Path_4312" class="st12" d="M-1865.6,4100.5l-0.1,2.5h-8l0.2-1.3l-2.4,1.3h-14.9c-0.2-1,0.1-2.1,0.9-2.7L-1865.6,4100.5
				z"/>
			<path id="Path_4313" class="st11" d="M-1829.6,4093l1,7.3l-7.2,1.1l-0.3-1.2l-3.1,2.6l-13.1,0.2c-0.3-1.4,0.4-2.8,1.7-3.3
				c1.6-0.8,2.3-1.4,2.5-2.5c0.3-1.3,0.4-2.7,0.4-4L-1829.6,4093z"/>
			<path id="Path_4314" class="st12" d="M-1829,4097.4l0.4,2.9l-7.2,1.1l-0.3-1.2l-3.1,2.6l-13.1,0.2c-0.2-0.7-0.1-1.3,0.3-1.9
				c0,0,11.3-0.5,12.7-1c2.1-0.8,5.9-1.7,5.9-1.7L-1829,4097.4z"/>
		</g>
		<g>
			<path id="Path_4270" class="st12" d="M554.4,220.3c0,0-2.6,5.3-7.5,6.9c-1.7,0.5-3.2,1.4-4.4,2.7c-2.3,2.3-4.9,6.4-4.6,13.1
				c0.6,11.4,3.1,11.9-3.7,14.6c-9.2,3.6-7.2,20.6,5.3,23.1c5.7,1.1,11.5,2.6,16.8,4.9c6.4,2.9,13.4,9.4,20.8,6
				c6.2-2.8,8.6-9.9,7.2-16.3c-0.8-3.8-2.5-7.2-4.3-10.7c-1.7-3.3-2.8-6.6,0.4-9.4c1.7-1.5,4-2.2,5.5-4c3.2-4.1-0.5-10.8-0.5-15.3
				c-0.1-21.6-12.5-23.3-12.5-23.3l-2.3-0.6l-2.9,0.3l-3.7,1.3L554.4,220.3z"/>
			<path id="Path_4271" class="st13" d="M552.3,227.9c0.1,0,0.2,0,0.3,0c0.2,0,0.4-0.1,0.4-0.4c0,0,0,0,0,0c0-0.1,0-0.1,0-0.2
				c0-7.3,7.1-13.1,16-13.1s16,5.9,16,13.1c0,0.1,0,0.1,0,0.2c0,0.2,0.2,0.4,0.4,0.4c0,0,0,0,0,0c0.1,0,0.3,0,0.4,0
				c2,0,3.7,1.4,3.7,3.1c0,1.7-1.7,3.1-3.7,3.1c-0.8,0-1.5-0.2-2.2-0.6c-0.2-0.1-0.4-0.1-0.6,0.1c-2.5,3.4-6.2,5.8-10.3,6.5
				c-0.4,0.1-0.7,0.4-0.6,0.8l0.4,7.4h-6.9l0.4-7.4c0-0.4-0.2-0.7-0.6-0.8c-4.1-0.7-7.8-3-10.3-6.4c-0.1-0.2-0.4-0.2-0.6-0.1
				c-0.6,0.4-1.4,0.6-2.1,0.6c-2,0-3.7-1.4-3.7-3.1S550.2,227.9,552.3,227.9 M552.9,227.5c0-0.1,0-0.1,0-0.2c0-7.3,7.1-13.1,16-13.1
				s16,5.9,16,13.1c0,0.1,0,0.1,0,0.2c0,0.1,0,0.2,0.1,0.2v0.1c0,0-13.1-1.5-15.2-8.7c0,0-9.7,9.9-17.3,8.8
				C552.7,227.9,552.9,227.7,552.9,227.5C552.9,227.5,552.9,227.5,552.9,227.5"/>
			<path id="Path_4274" class="st12" d="M578.4,230.5c0.1-0.2,0-0.4-0.2-0.5c-0.2-0.1-0.4,0-0.5,0.2c0,0,0,0,0,0
				c0,0.1-0.1,0.2-0.1,0.3c-0.1,0.2-0.3,0.4-0.4,0.6c-0.4,0.6-1,0.9-1.7,0.9c-0.7,0-1.3-0.3-1.8-0.8c-0.2-0.2-0.3-0.4-0.4-0.6
				c0-0.1-0.1-0.2-0.1-0.3c-0.1-0.2-0.3-0.3-0.5-0.2c0,0,0,0,0,0c-0.2,0.1-0.3,0.3-0.2,0.5c0.2,0.4,0.4,0.8,0.7,1.1
				c0.6,0.7,1.4,1.1,2.3,1.1c0.9,0,1.8-0.5,2.3-1.2C578,231.3,578.2,231,578.4,230.5"/>
			<path id="Path_4275" class="st12" d="M567.8,230.5c0.1-0.2,0-0.4-0.2-0.5c-0.2-0.1-0.4,0-0.5,0.2c0,0,0,0,0,0
				c0,0.1-0.1,0.2-0.2,0.3c-0.1,0.2-0.3,0.4-0.5,0.6c-0.4,0.5-1.1,0.8-1.7,0.9c-0.6,0-1.2-0.4-1.6-0.9c-0.2-0.2-0.3-0.4-0.4-0.7
				c0-0.1-0.1-0.2-0.1-0.3c-0.1-0.2-0.3-0.3-0.5-0.3c0,0,0,0,0,0c-0.2,0.1-0.3,0.3-0.3,0.5c0,0.1,0.1,0.3,0.2,0.4
				c0.1,0.3,0.3,0.6,0.5,0.8c0.5,0.8,1.3,1.2,2.2,1.2c0.9,0,1.7-0.4,2.3-1.1C567.4,231.3,567.6,230.9,567.8,230.5"/>
			<path id="Path_4276" class="st12" d="M573.4,235.2c0.1-0.2,0.1-0.4-0.1-0.5c-0.2-0.1-0.4-0.1-0.5,0.1c0,0,0,0,0,0
				c-0.1,0.1-0.1,0.2-0.2,0.2c-0.2,0.2-0.4,0.4-0.6,0.5c-1.2,0.8-2.7,1-4.1,0.6c-0.2-0.1-0.4,0.1-0.5,0.3c0,0,0,0,0,0
				c-0.1,0.2,0.1,0.4,0.3,0.5c1.6,0.6,3.4,0.3,4.8-0.7C572.9,235.9,573.2,235.5,573.4,235.2"/>
			<path id="Path_4277" class="st13" d="M495.5,210.2c0,0-2.6-13.2-8-19.4c0,0-4.7-1.6-2.5,7.5l-14.4-5.2c0,0-8.1-3.6-8.2-0.1
				c0,0-5.2-2.1-5.7-0.3c-0.5,2,1.5,3.1,1.5,3.1s-3.3-1.2-3.8,0.5c-0.2,0.6-0.5,2.3,2.1,3.5c0,0-2.7-0.5-2.6,0.9
				c0.2,2.1,1.8,2.9,4.8,4.1c4.6,1.8,12.6,4.3,12.6,4.3l6.7,6.1L495.5,210.2z M607.2,273.5c0,0,18.3,37.6,25.4,51.3
				c0,0,16,23.9,16.6,25c1,1.7-2.7,2-4.1,0.8c0,0,1.7,2.6,1.1,3.2c-0.7,0.8-2.6,0.8-3.5,0c0,0,1.1,2.3,0.3,2.7c0,0-2.1,1.1-5-0.9
				c0,0,2.3,2.3,1.2,3.3c-1,1-3.3,1.2-6.8-2.1c-3.5-3.3-9.3-9.4-9.3-9.4s0.3,6.8-1.1,7.8c-0.6,0.4-1.3,0.3-1.7-0.3c0,0,0,0,0,0
				c-0.4-0.5-0.7-1.1-0.8-1.7l-2-11.1c0,0-18.1-37.3-19-43.1c-1-5.8-5.8-19.1-5.8-19.1l6.4-6.7L607.2,273.5z M560.2,248.5
				c12.2-1.7,19.3,0.4,19.3,0.4s-11.1,7.4-13.9,7.1C564.3,256,560.2,248.5,560.2,248.5"/>
			<path id="Path_4278" class="st14" d="M462.4,193c0.1-0.1,0.2-0.2,0.3-0.1l0.1,0l0.3,0.1c0.4,0.1,0.8,0.3,1.2,0.5
				c1.3,0.5,2.6,1,3.8,1.5l0.6,0.2c3.1,1.1,5.2,1.9,5.8,1.9c0.1,0,0.3,0.1,0.2,0.3c0,0.1-0.1,0.3-0.3,0.2l0,0c-0.7,0-2.8-0.7-6-1.9
				l-0.6-0.2c-1.2-0.5-2.5-1-3.8-1.5c-0.4-0.2-0.9-0.3-1.2-0.5l-0.3-0.1l-0.1,0C462.4,193.3,462.4,193.2,462.4,193 M645.2,350.7
				c-0.1,0.1-0.3,0.1-0.4,0l-0.1-0.1c-0.1-0.1-0.2-0.1-0.2-0.2c-0.3-0.2-0.6-0.5-0.9-0.9c-1-1-1.9-2.1-2.6-3.3
				c-0.5-0.7-0.9-1.5-1.3-2.3c-0.1-0.1,0-0.3,0.1-0.4c0.1-0.1,0.3,0,0.4,0.1c0,0,0,0,0,0c0.4,0.8,0.8,1.5,1.3,2.2
				c0.8,1.2,1.6,2.2,2.6,3.2c0.3,0.3,0.6,0.6,0.8,0.8c0.1,0.1,0.2,0.1,0.2,0.2l0.1,0.1C645.3,350.5,645.3,350.6,645.2,350.7
				C645.2,350.7,645.2,350.7,645.2,350.7 M642.8,354c-0.1,0.1-0.3,0.1-0.4,0c0,0,0,0,0,0l0,0l-0.1-0.1l-0.2-0.2
				c-0.3-0.3-0.6-0.6-0.9-0.9c-0.9-0.9-1.8-1.9-2.7-2.8c-0.2-0.3-0.5-0.5-0.7-0.8c-1.2-1.2-2.2-2.6-3.1-4.1c-0.1-0.1,0-0.3,0.1-0.3
				c0.1-0.1,0.3,0,0.3,0.1c0.8,1.4,1.8,2.8,3,4c0.2,0.3,0.5,0.5,0.7,0.8c0.8,0.9,1.7,1.9,2.6,2.8c0.3,0.3,0.6,0.6,0.9,0.9
				c0.1,0.1,0.2,0.2,0.2,0.2l0.1,0.1C642.9,353.8,642.9,353.9,642.8,354 M637.2,355.3c0.1,0.1,0.3,0.1,0.4,0c0.1-0.1,0.1-0.3,0-0.4
				l0,0l-0.1-0.1l-0.2-0.2c-0.2-0.2-0.5-0.5-0.8-0.8c-0.8-0.8-1.6-1.6-2.3-2.4c-0.2-0.2-0.4-0.4-0.5-0.6c-1.6-1.7-2.6-3-2.8-3.5
				c0-0.1-0.2-0.2-0.3-0.2s-0.2,0.2-0.2,0.3c0,0,0,0,0,0c0.2,0.7,1.2,1.9,2.9,3.7c0.2,0.2,0.3,0.4,0.5,0.6c0.7,0.8,1.5,1.6,2.3,2.4
				c0.3,0.3,0.5,0.5,0.8,0.8L637.2,355.3L637.2,355.3 M458.3,195.7c-0.1-0.1-0.3,0-0.3,0.1c-0.1,0.1,0,0.3,0.1,0.3c0,0,0,0,0,0
				c0,0,0.1,0,0.1,0.1c0.1,0,0.2,0.1,0.4,0.1c0.4,0.2,0.9,0.3,1.5,0.5c1.6,0.6,3.3,1.1,5.1,1.6c1.7,0.5,3.3,0.9,5,1.2
				c0.1,0,0.3-0.1,0.3-0.2c0-0.1-0.1-0.3-0.2-0.3l0,0c-1.6-0.3-3.3-0.8-4.9-1.2c-1.8-0.5-3.5-1.1-5.1-1.6c-0.5-0.2-1-0.4-1.4-0.5
				c-0.1-0.1-0.3-0.1-0.4-0.1L458.3,195.7 M455.5,199.5c0-0.1,0.2-0.2,0.3-0.2l0.1,0l0.2,0.1c0.3,0.1,0.6,0.2,0.9,0.3
				c1,0.3,2.1,0.6,3.2,0.9c1.4,0.4,2.7,0.7,4,0.9c1.3,0.3,2.6,0.4,3.9,0.4c0.1,0,0.3,0.1,0.3,0.3c0,0.1-0.1,0.3-0.3,0.3l0,0
				c-1.3,0-2.6-0.2-3.9-0.5c-1.3-0.2-2.6-0.6-4-0.9c-1.1-0.3-2.2-0.6-3.2-0.9c-0.3-0.1-0.7-0.2-0.9-0.3l-0.3-0.1l-0.1,0
				C455.6,199.8,455.5,199.6,455.5,199.5C455.5,199.5,455.5,199.5,455.5,199.5 M471.3,208.9c-0.1,0.1-0.2,0.2-0.2,0.3
				c0.1,0.1,0.2,0.2,0.3,0.2c0,0,0,0,0,0l1.6-0.7c0.1-0.1,0.2-0.2,0.1-0.3c-0.1-0.1-0.2-0.2-0.3-0.1c0,0,0,0,0,0L471.3,208.9z
				 M485.3,198.3c0,0.1-0.1,0.3-0.3,0.3c0,0,0,0,0,0c0,0-0.1,0-0.2,0c-0.2,0-0.5,0.1-0.7,0.1c-0.8,0.2-1.5,0.6-2.1,1.1
				c-1.1,0.9-1.9,2.1-2.3,3.5c0,0.1-0.2,0.2-0.3,0.2c-0.1,0-0.2-0.2-0.2-0.3c0.4-1.5,1.3-2.8,2.5-3.7c0.7-0.5,1.4-0.9,2.2-1.2
				c0.3-0.1,0.7-0.2,1-0.2C485.2,198.1,485.3,198.2,485.3,198.3C485.3,198.3,485.3,198.3,485.3,198.3"/>
			<path id="Path_4279" class="st15" d="M538.3,299.8l0.4-25.3c0,0-24.6-11.8-32.2-17.8c-9.8-7.7-30.3-40.9-30.3-40.9l22.8-6.6
				c4.7,7.5,22.5,25.1,33.9,34.5c5.1,4.2,11.7,6.2,18.3,5.6c1.5-0.2,3.3-0.3,5.3-0.4l0.1,0c1.3-0.1,2.6-0.2,3.8-0.3h0
				c0,0,4.1,7.5,5.4,7.6c2.8,0.2,13.9-7.1,13.9-7.1s-0.1,0-0.2-0.1c4.4,0.9,8.7,2.3,12.7,4.3c11.3,5.2,42.7,75.1,42.7,75.1
				s-11.1,10.8-22.5,11.7l-16.5-40.2C595.7,299.9,575.5,309.9,538.3,299.8"/>
			<path id="Path_4280" class="st11" d="M598.3,297.7c-0.3,0.3-0.7,0.6-1.1,0.9c-0.3,0.2-0.5,0.4-0.8,0.5c-0.3,0.2-0.6,0.4-0.9,0.5
				c-0.1,0.1-0.2,0.2-0.1,0.4c0.1,0.1,0.2,0.2,0.3,0.1c0.3-0.2,0.7-0.3,1-0.5c0.3-0.2,0.5-0.4,0.8-0.6c0.4-0.3,0.7-0.6,1.1-0.9
				c0.1-0.1,0.2-0.2,0.3-0.3l0.1-0.1c0.1-0.1,0.1-0.2,0.1-0.3l-9.6-22c-0.1-0.1-0.2-0.2-0.3-0.1c-0.1,0.1-0.2,0.2-0.1,0.3l9.6,21.8
				C598.5,297.5,598.4,297.6,598.3,297.7"/>
		</g>
	</g>
	<g id="Group_677_1_" transform="translate(1465.037 -3460.315)">
		<g id="Group_676_1_" transform="translate(-1465.037 3475.965)">
			<path id="Path_4243_1_" class="st16" d="M215.7,277c0,0,8.5,34.4,9.6,118.9l-20.1-0.6l-3.8-0.1l-1.5-101.3l-3.3-0.1
				c0,0-5.9,100.1-5.9,101.9l-25.9,0.2c0,0,5.2-102.7,14.2-118.9L215.7,277z"/>
			<path id="Path_4244_1_" class="st10" d="M181.3,279.3l1.9,0v0c0,0.3-0.1,0.7-0.2,1.1c-0.2,1.2-0.4,2.6-0.7,4.2
				c-0.7,4.5-1.5,9.8-2.4,15.6c-2.4,16.6-4.9,34.8-7.2,53.9c-1.7,13.9-3.2,27.8-4.5,41.5c0,0.1,0.1,0.2,0.2,0.3
				c0.1,0,0.2-0.1,0.3-0.2c1.3-13.7,2.8-27.6,4.5-41.5c2.3-19.1,4.7-37.3,7.2-53.9c0.9-5.8,1.6-11,2.4-15.6c0.2-1.6,0.5-3,0.7-4.2
				c0.1-0.4,0.1-0.8,0.2-1.1l0-0.1c1.7,0,3.5,0.1,5.3,0.1c2.8,0,5.6,0.1,8.2,0.1c10.8,0.1,17.7,0.1,18.9-0.1c0.1,0,0.2-0.1,0.2-0.3
				c0-0.1-0.1-0.2-0.3-0.2c-1.2,0.2-8.1,0.2-18.8,0.1c-2.6,0-5.4-0.1-8.2-0.1c-1.8,0-3.6-0.1-5.3-0.1c-0.1-0.1-0.2-0.1-0.3-0.1
				c0,0,0,0,0,0l-2,0l-2.3,0l-0.6,0l-0.2,0c-0.1,0-0.2,0.1-0.2,0.2c0,0.1,0.1,0.2,0.2,0.2l0.2,0l0.6,0
				C179.7,279.2,180.5,279.3,181.3,279.3 M199.6,293.9c0,0.1,0.1,0.2,0.2,0.2l3-0.1c0.1,0,0.2-0.1,0.2-0.3c0-0.1-0.1-0.2-0.2-0.2
				l-3,0.1C199.7,293.7,199.6,293.8,199.6,293.9"/>
			<path id="Path_4245_1_" class="st11" d="M204.9,395.2l0.5,10h7.7l-0.2-1.3l2.4,1.3h14.4c0,0,0.6-2-1.7-3.2
				c-2.5-1.4-2.9-1.9-3.4-3.1c-0.4-1-0.5-2.1-0.4-3.2L204.9,395.2z"/>
			<path id="Path_4246_1_" class="st12" d="M205.3,402.8l0.1,2.4h7.7l-0.2-1.3l2.4,1.3h14.4c0.2-1-0.1-2-0.9-2.6L205.3,402.8z"/>
			<path id="Path_4247_1_" class="st11" d="M170.6,395.6l-1,7l6.9,1l0.3-1.1l3,2.5l12.6,0.2c0,0,0.6-2-1.7-3.2
				c-1.6-0.8-2.2-1.4-2.4-2.4c-0.3-1.3-0.4-2.6-0.4-3.9L170.6,395.6z"/>
			<path id="Path_4248_1_" class="st12" d="M170,399.9l-0.4,2.8l6.9,1l0.3-1.1l3,2.5l12.6,0.2c0.2-0.6,0.1-1.3-0.3-1.9
				c0,0-10.9-0.5-12.2-1c-2-0.8-5.7-1.7-5.7-1.7L170,399.9z"/>
			<path id="Path_4249_1_" class="st17" d="M188.8,204.5c-7.3,0-13.3,5.3-13.3,11.9c0,1.3,0.2,2.6,0.7,3.8c0,0-0.1,0-0.1,0
				c-1.9,0-3.5,1.3-3.5,2.9c0,1.6,1.6,2.9,3.5,2.9c1,0,1.9-0.3,2.7-1c0.2-0.2,0.6-0.2,0.8,0c1.9,1.6,4.2,2.7,6.6,3.1
				c0.3,0.1,0.6,0.4,0.5,0.7l-0.4,6.5h6.1l-0.3-5.1c-0.1-1.2,0.6-2.3,1.8-2.8c4.7-1.8,8.1-6,8.1-10.9
				C202.1,209.9,196.1,204.5,188.8,204.5"/>
			<path id="Path_4250_1_" class="st11" d="M190.5,199.6c1.1-2.4,3.5-3.9,6.2-4c3.9,0,7.1,3.5,7.1,7.9s-3.2,7.9-7.1,7.9
				c-1.6,0-3.3-1.4-4.5-2.5c-0.8,1.9-3,3.6-6.1,3.8c-2.1,0.2-3.9-1-5.1-1.7l-0.2-0.1c0.1,0.3,0.1,0.6,0.1,0.9c0,2.7-0.3,4.7-3.4,6
				c0.2,0.6,0.4,1.2,0.4,1.8c0.2,2.1-1.4,4-3.6,4.2c-2.1,0.2-4-1.4-4.2-3.6c0-0.2,0-0.4,0-0.7c0-1.8,1.1-3.5,2.8-4
				c-2.9-1.2-4.3-4.6-3.1-7.6c0.4-0.9,1-1.7,1.8-2.3c1.6-1.1,3.5-1.4,5.3-0.8c-2.2-2.7-2.7-6.6-0.3-9.4c1.6-1.7,3.7-2.6,6-2.6
				C186.7,193,190,195.9,190.5,199.6 M176.5,226c0.9-0.1,1.7-0.4,2.3-1c0.2-0.2,0.6-0.2,0.8,0c1.8,1.5,3.9,2.5,6.1,3
				c-0.6,0.5-1.4,0.7-2.2,0.6c-0.7-0.1-1.3-0.4-1.7-0.9c-0.8,0.6-1.8,0.9-2.8,0.7C177.6,228.1,176.5,227.1,176.5,226"/>
			<path id="Path_4251_1_" class="st12" d="M188.2,219.9c0-0.2,0.1-0.4,0.3-0.4c0.2,0,0.4,0.1,0.4,0.3c0,0,0,0,0,0c0,0,0,0.1,0,0.3
				c0,0.2,0.1,0.5,0.2,0.7c0.2,0.8,0.5,1.5,0.8,2.2c0.9,1.8,2.1,3,3.6,3.1c1.5,0.1,2.5-1.6,3.1-4.5c0.2-1,0.3-2,0.4-3.1
				c0-0.4,0-0.8,0-1.1c0-0.2,0-0.4,0-0.5v0c0-0.2,0.1-0.3,0.3-0.4c0.2,0,0.3,0.1,0.4,0.3l0,0v0c0,0.1,0,0.3,0,0.6c0,0.3,0,0.7,0,1.1
				c-0.1,1.1-0.2,2.1-0.4,3.2c-0.6,3.3-1.8,5.2-3.8,5.1c-1.9-0.1-3.2-1.4-4.2-3.5c-0.3-0.7-0.6-1.5-0.8-2.3
				c-0.1-0.3-0.1-0.5-0.2-0.8C188.3,220.1,188.3,220.1,188.2,219.9C188.3,220,188.3,219.9,188.2,219.9"/>
			<path id="Path_4257" class="st18" d="M138.2,337.8c-5.6-1.8-17.2-3-22.8,15.7c0,0-15.8-0.1-24.8,1.2c-10.5,1.4-10.7,6.2-15,8.5
				c-10.1,5.3-17.5,5.9-17.5,7.1c-0.1,3.6,14.9-0.8,16.7-1.4c0,0-2.8,7.8,1,25.5c0.1,0.6,0.7,1.1,1.4,1l1.9-0.1
				c0.7,0,1.2-0.6,1.2-1.3v-9.9c0-0.5,0.4-0.9,0.9-0.9c0,0,0,0,0.1,0h0c0.4,0,0.8,0.4,0.8,0.8l0.6,10c0,0.7,0.6,1.2,1.3,1.2h1.4
				c0.7,0,1.3-0.6,1.3-1.3l0.6-15.7c0,0,21.9,5.2,30.7,4.9l1.3,12.2c0.1,0.6,0.6,1.1,1.2,1.2l0.7,0c0.6,0,1.2-0.4,1.4-1l2.6-10.7
				c0.1-0.4,0.5-0.7,0.9-0.7l0.1,0c0.4,0,0.8,0.4,0.8,0.8l0.6,10.3c0,0.6,0.5,1.1,1.2,1.2l1.3,0.1c0.7,0.1,1.3-0.4,1.4-1.1l6-33.6
				c0,0,13.4-10.2,6.9-19.7C143,340.2,140.8,338.6,138.2,337.8"/>
			<path id="Path_4259" class="st12" d="M131.6,341.9c0.2,1,0.9,1.6,1.5,1.5c0.6-0.1,0.9-1,0.7-2s-0.9-1.6-1.5-1.5
				C131.7,340,131.4,340.9,131.6,341.9"/>
			<path id="Path_4260" class="st12" d="M137.7,346.1c0.1-0.2,0.3-0.2,0.4-0.1c0.7,0.4,1.5,0.4,2.2,0.2c0.7-0.3,1.2-0.8,1.5-1.5
				l0.1-0.1l-1.6-1.8c-0.1-0.1-0.1-0.4,0-0.5c0.1,0,0.1-0.1,0.2-0.1l2-0.3c0.2,0,0.4,0.1,0.4,0.3c0,0.1,0,0.1,0,0.2l-0.6,2.1
				l0.1,0.2c0,0,1.6,2.1,3.7,1.3c0.2-0.1,0.4,0,0.4,0.2c0.1,0.2,0,0.4-0.2,0.4c-1.5,0.5-3.1,0.1-4.1-1.1c-0.5,1-1.5,1.6-2.6,1.6
				c-0.6,0-1.2-0.2-1.8-0.4C137.6,346.4,137.6,346.2,137.7,346.1C137.6,346.1,137.6,346.1,137.7,346.1"/>
			<path id="Path_4261" class="st19" d="M126.4,359.1c-2.7,3.6-6.6-9-7.8-13.2c1.4-2.6,3.3-4.8,5.7-6.6
				C125.2,342.4,129.2,355.3,126.4,359.1"/>
			<path id="Path_4263" class="st19" d="M145.6,351.6c1.7,1.9,5.7,7.4,3.4,12.3c-2.2,4.6-4.9-3.2-6.1-7.2
				C144.1,355.1,145,353.4,145.6,351.6"/>
			<path id="Path_4375" class="st20" d="M114.3,352.7c3.5,5.1,14.4,12.2,21.4,15c1.3,0.6,2.7,0.9,4.1,1l0,0c0.6,0-1.7-6.4-1.7-6.4"
				/>
		</g>
		<g id="Group_675_1_" transform="translate(-1417.98 3460.315)">
			<path id="Path_4277_2_" class="st17" d="M79.7,215.4c0,0-2.4-11.8-7.1-17.2c0,0-4.2-1.4-2.2,6.7l-12.8-4.6c0,0-7.2-3.2-7.3-0.1
				c0,0-4.6-1.9-5-0.2c-0.4,1.8,1.3,2.8,1.3,2.8s-2.9-1.1-3.4,0.4c-0.2,0.5-0.5,2,1.8,3.1c0,0-2.4-0.5-2.3,0.8
				c0.2,1.9,1.6,2.6,4.3,3.7c4.1,1.6,11.2,3.8,11.2,3.8l6,5.4L79.7,215.4z M137.2,249.6c10.8-1.5,17.2,0.4,17.2,0.4
				s-9.8,6.5-12.3,6.4C140.9,256.2,137.2,249.6,137.2,249.6"/>
			<path id="Path_4334_1_" class="st17" d="M208.4,215.4c0,0,2.4-11.8,7.1-17.2c0,0,4.2-1.4,2.2,6.7l12.8-4.6c0,0,7.2-3.2,7.3-0.1
				c0,0,4.6-1.9,5-0.2c0.4,1.8-1.3,2.8-1.3,2.8s2.9-1.1,3.4,0.4c0.2,0.5,0.5,2-1.8,3.1c0,0,2.4-0.5,2.3,0.8
				c-0.2,1.9-1.6,2.6-4.3,3.7c-4.1,1.6-11.2,3.8-11.2,3.8l-6,5.4L208.4,215.4z"/>
			<path id="Path_4278_2_" class="st14" d="M50.2,200.2c0-0.1,0.2-0.2,0.3-0.1l0.1,0l0.3,0.1c0.3,0.1,0.7,0.3,1.1,0.4
				c1.1,0.4,2.3,0.9,3.4,1.3l0.5,0.2c1.7,0.7,3.4,1.3,5.2,1.7c0.1,0,0.2,0.1,0.2,0.2c0,0.1-0.1,0.2-0.2,0.2c-0.6,0-2.5-0.6-5.3-1.7
				l-0.5-0.2c-1.1-0.4-2.3-0.9-3.4-1.3c-0.4-0.2-0.8-0.3-1.1-0.4l-0.3-0.1l-0.1,0C50.3,200.4,50.2,200.3,50.2,200.2
				C50.2,200.2,50.2,200.2,50.2,200.2 M46.6,202.5c-0.1,0-0.3,0-0.3,0.1s0,0.3,0.1,0.3l0.1,0c0.1,0,0.2,0.1,0.3,0.1
				c0.4,0.1,0.8,0.3,1.3,0.5c1.4,0.5,2.9,1,4.5,1.4c1.5,0.4,2.9,0.8,4.4,1.1c0.1,0,0.2-0.1,0.3-0.2c0-0.1-0.1-0.2-0.2-0.3
				c-1.5-0.3-2.9-0.7-4.4-1.1c-1.6-0.5-3.1-0.9-4.5-1.4c-0.5-0.2-0.9-0.3-1.3-0.5c-0.1,0-0.2-0.1-0.3-0.1L46.6,202.5 M44.1,205.9
				c0-0.1,0.2-0.2,0.3-0.1l0.1,0l0.2,0.1c0.2,0.1,0.5,0.2,0.8,0.3c0.9,0.3,1.8,0.6,2.8,0.8c1.2,0.3,2.4,0.6,3.5,0.8
				c1.1,0.2,2.3,0.4,3.4,0.4c0.1,0,0.2,0.1,0.2,0.2c0,0.1-0.1,0.2-0.2,0.2c-1.2,0-2.4-0.2-3.5-0.4c-1.1-0.2-2.3-0.5-3.6-0.8
				c-1-0.3-1.9-0.6-2.8-0.8c-0.3-0.1-0.6-0.2-0.8-0.3l-0.2-0.1l-0.1,0C44.1,206.2,44.1,206.1,44.1,205.9 M58.1,214.3
				c-0.1,0.1-0.2,0.2-0.1,0.3c0.1,0.1,0.2,0.2,0.3,0.1l1.4-0.6c0.1,0,0.2-0.2,0.1-0.3c0-0.1-0.2-0.2-0.3-0.1c0,0,0,0,0,0L58.1,214.3
				z M70.6,204.9c0,0.1-0.1,0.2-0.2,0.2c0,0,0,0,0,0c0,0-0.1,0-0.2,0c-0.2,0-0.4,0.1-0.6,0.1c-0.7,0.2-1.3,0.5-1.8,0.9
				c-1,0.8-1.7,1.9-2.1,3.1c0,0.1-0.2,0.2-0.3,0.2c-0.1,0-0.2-0.2-0.2-0.3c0,0,0,0,0,0c0.4-1.3,1.2-2.5,2.2-3.3c0.6-0.5,1.3-0.8,2-1
				c0.3-0.1,0.6-0.1,0.9-0.2C70.5,204.7,70.6,204.8,70.6,204.9C70.6,204.9,70.6,204.9,70.6,204.9"/>
			<path id="Path_4279_2_" class="st21" d="M117.7,295.2l0.3-22.5c0,0-21.9-10.5-28.7-15.9c-8.7-6.8-27-36.4-27-36.4l20.3-5.9
				c4.2,6.7,20,22.3,30.2,30.7c4.6,3.8,10.4,5.6,16.3,5c1.4-0.1,2.9-0.3,4.7-0.4l0.1,0c1.2-0.1,2.3-0.2,3.3-0.2h0
				c0,0,3.7,6.7,4.8,6.8c2.5,0.2,12.3-6.4,12.3-6.4s-0.1,0-0.2-0.1c3.9,0.8,7.7,2.1,11.3,3.8c10.1,4.6,0,25.9,3.3,41.5
				C168.8,295.2,150.8,304.2,117.7,295.2"/>
			<path id="Path_4335_1_" class="st21" d="M171.6,295.2l-0.3-22.5c0,0,21.9-10.5,28.7-15.9c8.7-6.8,27-36.4,27-36.4l-20.3-5.9
				c-4.2,6.7-20,22.3-30.2,30.7c-4.6,3.8-10.4,5.6-16.3,5c-1.4-0.1-2.9-0.3-4.7-0.4l-0.1,0c-1.2-0.1-2.3-0.2-3.3-0.2h0
				c0,0-3.7,6.7-4.8,6.8c-2.5,0.2-12.3-6.4-12.3-6.4s0.1,0,0.2-0.1c-3.9,0.8-7.7,2.1-11.3,3.8c-10.1,4.6-4.6,5.1-6.8,19l3.5,22.6
				C120.5,295.2,138.5,304.2,171.6,295.2"/>
			<path id="Path_4336_1_" class="st14" d="M236.9,200.2c0-0.1-0.2-0.2-0.3-0.1l-0.1,0l-0.3,0.1c-0.3,0.1-0.7,0.3-1.1,0.4
				c-1.1,0.4-2.3,0.9-3.4,1.3l-0.5,0.2c-1.7,0.7-3.4,1.3-5.2,1.7c-0.1,0-0.2,0.1-0.2,0.2c0,0.1,0.1,0.2,0.2,0.2
				c0.6,0,2.5-0.6,5.3-1.7l0.5-0.2c1.1-0.4,2.3-0.9,3.4-1.3c0.4-0.2,0.8-0.3,1.1-0.4l0.3-0.1l0.1,0
				C236.9,200.4,237,200.3,236.9,200.2C236.9,200.2,236.9,200.2,236.9,200.2 M240.6,202.5c0.1,0,0.3,0,0.3,0.1s0,0.3-0.1,0.3l-0.1,0
				c-0.1,0-0.2,0.1-0.3,0.1c-0.4,0.1-0.8,0.3-1.3,0.5c-1.4,0.5-2.9,1-4.5,1.4c-1.5,0.4-2.9,0.8-4.4,1.1c-0.1,0-0.2-0.1-0.3-0.2
				c0-0.1,0.1-0.2,0.2-0.3c1.5-0.3,2.9-0.7,4.4-1.1c1.6-0.5,3.1-0.9,4.5-1.4c0.5-0.2,0.9-0.3,1.3-0.5c0.1,0,0.2-0.1,0.3-0.1
				L240.6,202.5 M243,205.9c0-0.1-0.2-0.2-0.3-0.1l-0.1,0l-0.2,0.1c-0.2,0.1-0.5,0.2-0.8,0.3c-0.9,0.3-1.8,0.6-2.8,0.8
				c-1.2,0.3-2.4,0.6-3.5,0.8c-1.1,0.2-2.3,0.4-3.4,0.4c-0.1,0-0.2,0.1-0.2,0.2c0,0.1,0.1,0.2,0.2,0.2c1.2,0,2.4-0.2,3.5-0.4
				c1.1-0.2,2.3-0.5,3.6-0.8c1-0.3,1.9-0.6,2.8-0.8c0.3-0.1,0.6-0.2,0.8-0.3l0.2-0.1l0.1,0C243,206.2,243.1,206.1,243,205.9
				 M229,214.3c0.1,0.1,0.2,0.2,0.1,0.3c-0.1,0.1-0.2,0.2-0.3,0.1l-1.4-0.6c-0.1,0-0.2-0.2-0.1-0.3c0-0.1,0.2-0.2,0.3-0.1
				c0,0,0,0,0,0L229,214.3z M216.5,204.9c0,0.1,0.1,0.2,0.2,0.2c0,0,0,0,0,0c0,0,0.1,0,0.2,0c0.2,0,0.4,0.1,0.6,0.1
				c0.7,0.2,1.3,0.5,1.8,0.9c1,0.8,1.7,1.9,2.1,3.1c0,0.1,0.2,0.2,0.3,0.2c0.1,0,0.2-0.2,0.2-0.3c0,0,0,0,0,0
				c-0.4-1.3-1.2-2.5-2.2-3.3c-0.6-0.5-1.3-0.8-2-1c-0.3-0.1-0.6-0.1-0.9-0.2C216.6,204.7,216.5,204.8,216.5,204.9
				C216.5,204.9,216.5,204.9,216.5,204.9"/>
		</g>
	</g>
</g>
<g>
</g>
<g>
</g>
<g>
</g>
<g>
</g>
<g>
</g>
<g>
</g>
</svg>
